# xmcd CD database file
#
# Track frame offsets:
#	150
#	21837
#	45502
#	78547
#
# Disc length: 1140 seconds
#
# Revision: 1
# Processed by: cddbd v1.5.1PL0 Copyright (c) Steve Scherf et al.
# Submitted via: CDex 1.51
#
DISCID=26047204
DTITLE=MOON CHILD - アネモネ
DYEAR=1997
DGENRE=JPop
TTITLE0=アネモネ
TTITLE1=夏草の想い
TTITLE2=アネモネ (Instrumental)
TTITLE3=CD EXTRA
EXTD=YEAR: 1997
EXTT0=
EXTT1=
EXTT2=
EXTT3=
PLAYORDER=
